<?xml version="1.0" encoding="UTF-8"?><svg id="a" xmlns="http://www.w3.org/2000/svg" xmlns:xlink="http://www.w3.org/1999/xlink" viewBox="0 0 217.3 115.3"><defs><style>.c{fill:#037345;}.c,.d,.e,.f{stroke-width:0px;}.e{fill:none;}.g{clip-path:url(#b);}.f{fill:#27aae1;}</style><clipPath id="b"><path class="e" d="m159,7.1L57.6,108.5H10.3c-2.3,0-4.1-1.8-4.1-4.1V11.2c0-2.3,1.8-4.1,4.1-4.1h148.7Z"/></clipPath></defs><path class="d" d="m199.7,39.1l-25.2-25.2c-1.5-1.5-4.1-1.5-5.7.1l-25.2,25.2c-1.6,1.6-1.6,4.2,0,5.8l9.2,9.2,2.2,2.2c.2-.5.4-.9.8-1.3l.7-.8,13-14.4c1.4-1.6,2.2-3.6,2.2-5.7v-9.8h7.4v9.8c0,2.1.8,4.1,2.2,5.7l11.3,12.5,7.3-7.3c1.6-1.6,1.6-4.2-.1-6Zm-41.8,7.3c-.3.3,0,1.3-.4,1.3s-.1-1-.4-1.3c-.3-.3-1.2-.2-1.2-.5s.9-.2,1.2-.5c.3-.3,0-1.3.4-1.3s.1,1,.4,1.3c.3.3,1.2.2,1.2.5s-.9.2-1.2.5Zm9-11.9c-.8.8-.1,3.2-1.1,3.2s-.4-2.5-1.1-3.2-3-.5-3-1.2,2.3-.4,3-1.2c.8-.8.1-3.2,1.1-3.2s.4,2.5,1.1,3.2c.8.8,3,.5,3,1.2s-2.3.4-3,1.2Zm21.7,6.4c-.5.5,0,2-.7,2s-.2-1.5-.7-2-1.8-.3-1.8-.7,1.4-.3,1.8-.7,0-1.9.7-1.9.2,1.5.7,1.9,1.8.3,1.8.7-1.4.3-1.8.7Z"/><path class="f" d="m179.3,19.9h-7.7c-.8,0-1.4.6-1.4,1.4h0c0,.8.6,1.4,1.4,1.4h7.7c.8,0,1.4-.6,1.4-1.4h0c0-.8-.6-1.4-1.4-1.4Z"/><g class="g"><rect class="d" x="8.6" y="9.5" width="15.5" height="15.5" rx="2.8" ry="2.8"/><rect class="d" x="28.8" y="9.5" width="15.5" height="15.5" rx="2.8" ry="2.8"/><rect class="d" x="38.7" y="29.8" width="15.5" height="15.5" rx="2.8" ry="2.8"/><rect class="d" x="58.9" y="29.8" width="15.5" height="15.5" rx="2.8" ry="2.8"/><rect class="d" x="53" y="70.3" width="15.5" height="15.5" rx="2.7" ry="2.7"/><rect class="d" x="73.3" y="70.3" width="15.5" height="15.5" rx="2.7" ry="2.7"/><rect class="d" x="93.5" y="70.3" width="15.5" height="15.5" rx="2.8" ry="2.8"/><rect class="d" x="42.2" y="50.1" width="15.5" height="15.5" rx="2.8" ry="2.8"/><rect class="d" x="9.1" y="90.6" width="15.5" height="15.5" rx="2.7" ry="2.7"/><rect class="d" x="30" y="90.6" width="15.5" height="15.5" rx="2.7" ry="2.7"/><rect class="d" x="51" y="90.6" width="15.5" height="15.5" rx="2.7" ry="2.7"/><rect class="d" x="72" y="90.6" width="15.5" height="15.5" rx="2.7" ry="2.7"/><rect class="d" x="62.5" y="50.1" width="15.5" height="15.5" rx="2.8" ry="2.8"/><rect class="d" x="82.8" y="50.1" width="15.5" height="15.5" rx="2.8" ry="2.8"/><rect class="d" x="103" y="50.1" width="15.5" height="15.5" rx="2.8" ry="2.8"/><rect class="d" x="79.2" y="29.8" width="15.5" height="15.5" rx="2.8" ry="2.8"/><rect class="d" x="99.5" y="29.8" width="15.5" height="15.5" rx="2.8" ry="2.8"/><rect class="d" x="119.7" y="29.8" width="15.5" height="15.5" rx="2.8" ry="2.8"/><rect class="d" x="49.1" y="9.5" width="15.5" height="15.5" rx="2.8" ry="2.8"/><rect class="d" x="69.4" y="9.5" width="15.5" height="15.5" rx="2.8" ry="2.8"/><rect class="d" x="89.7" y="9.5" width="15.5" height="15.5" rx="2.8" ry="2.8"/><rect class="d" x="109.9" y="9.5" width="15.5" height="15.5" rx="2.8" ry="2.8"/><rect class="d" x="130.2" y="9.5" width="15.5" height="15.5" rx="2.8" ry="2.8"/><rect class="d" x="150.5" y="9.5" width="15.5" height="15.5" rx="2.8" ry="2.8"/><rect class="d" x="8.6" y="29.7" width="25.3" height="15.6" rx="2.8" ry="2.8"/><rect class="d" x="8.6" y="50.1" width="28.9" height="15.5" rx="2.8" ry="2.8"/><rect class="d" x="8.6" y="70.3" width="39.6" height="15.5" rx="2.7" ry="2.7"/></g><path class="d" d="m57.6,109.2c-.2,0-.4,0-.5-.2-.3-.3-.3-.7,0-1L158.8,6.3c.3-.3.7-.3,1,0s.3.7,0,1L58.1,109c-.1.1-.3.2-.5.2Z"/><path class="c" d="m211.2,62.4c0,.4-.3.7-.7.7h-101.8l1.4-1.4h48.4c.1,0,.2,0,.4,0h33.3c.1,0,.2,0,.4,0h18c.4,0,.7.3.7.7Z"/><path class="c" d="m192.5,61.7c-.1,0-.2,0-.4,0h-33.3c-.1,0-.2,0-.4,0h34Z"/><path class="c" d="m132.6,64.6v-1.5h-1.4v1.5c-1.2.3-2,1.4-2,2.6s1.2,2.7,2.7,2.7,2.7-1.2,2.7-2.7-.9-2.3-2-2.6Zm-.7,3.9c-.7,0-1.3-.6-1.3-1.3s.2-.9.6-1.1c.2-.1.4-.2.7-.2s.5,0,.7.2c.4.2.6.6.6,1.1,0,.7-.6,1.3-1.3,1.3Z"/><path class="c" d="m140.4,66.5v9.2h-5.9c-.3-1.2-1.4-2-2.6-2s-2.7,1.2-2.7,2.7,1.2,2.7,2.7,2.7,2.3-.8,2.6-2h7.3v-9.2h7.8v17h-26.3v-9.2h-27.4l-1.4,1.4h27.4v9.2h29v-19.8h-10.6Zm-7.2,9.9c0,.3,0,.5-.2.7-.2.4-.6.6-1.1.6-.7,0-1.3-.6-1.3-1.3s.6-1.3,1.3-1.3.9.2,1.1.6c.1.2.2.4.2.7Z"/><path class="c" d="m113.5,83c-1.2,0-2.3.8-2.6,2h-24.1l-1.4,1.4h25.5c.3,1.2,1.4,2,2.6,2s2.7-1.2,2.7-2.7-1.2-2.7-2.7-2.7Zm0,4c-.5,0-.9-.2-1.1-.6-.1-.2-.2-.4-.2-.7s0-.5.2-.7c.2-.4.6-.6,1.1-.6.7,0,1.3.6,1.3,1.3s-.6,1.3-1.3,1.3Z"/><path class="c" d="m122.7,64.5c-1.2,0-2.3.9-2.6,2h-14.9l-1.4,1.4h16.2c.3,1.2,1.4,2,2.6,2s2.7-1.2,2.7-2.7-1.2-2.7-2.7-2.7Zm0,4c-.5,0-.9-.2-1.1-.6-.1-.2-.2-.4-.2-.7s0-.5.2-.7c.2-.4.6-.6,1.1-.6.7,0,1.3.6,1.3,1.3s-.6,1.3-1.3,1.3Z"/><path class="c" d="m206.3,101.5v-31.7c1.2-.3,2-1.4,2-2.6s-1.2-2.7-2.7-2.7-2.7,1.2-2.7,2.7.9,2.3,2,2.6v31.7c-1.2.3-2,1.4-2,2.6s1.2,2.7,2.7,2.7,2.7-1.2,2.7-2.7-.9-2.3-2-2.6Zm-2-34.3c0-.7.6-1.3,1.3-1.3s1.3.6,1.3,1.3-.2.9-.6,1.1c-.2.1-.4.2-.7.2s-.5,0-.7-.2c-.4-.2-.6-.6-.6-1.1Zm1.3,38.2c-.7,0-1.3-.6-1.3-1.3s.2-.9.6-1.1c.2-.1.4-.2.7-.2s.5,0,.7.2c.4.2.6.6.6,1.1,0,.7-.6,1.3-1.3,1.3Z"/><path class="c" d="m159.6,101.4c-1.2,0-2.3.9-2.6,2h-50.1c-.3-1.2-1.4-2-2.6-2s-2.7,1.2-2.7,2.7,1.2,2.7,2.7,2.7,2.3-.9,2.6-2h50.1c.3,1.2,1.4,2,2.6,2s2.7-1.2,2.7-2.7-1.2-2.7-2.7-2.7Zm-54,2.7c0,.3,0,.5-.2.7-.2.4-.6.6-1.1.6-.7,0-1.3-.6-1.3-1.3s.6-1.3,1.3-1.3.9.2,1.1.6c.1.2.2.4.2.7Zm54,1.3c-.5,0-.9-.2-1.1-.6-.1-.2-.2-.4-.2-.7s0-.5.2-.7c.2-.4.6-.6,1.1-.6.7,0,1.3.6,1.3,1.3s-.6,1.3-1.3,1.3Z"/><path class="c" d="m95,101.4c-1.2,0-2.3.9-2.6,2h-24.1l-1.4,1.4h25.5c.3,1.2,1.4,2,2.6,2s2.7-1.2,2.7-2.7-1.2-2.7-2.7-2.7Zm0,4c-.5,0-.9-.2-1.1-.6-.1-.2-.2-.4-.2-.7s0-.5.2-.7c.2-.4.6-.6,1.1-.6.7,0,1.3.6,1.3,1.3s-.6,1.3-1.3,1.3Z"/><path class="c" d="m162.1,66.5c-.3-1.2-1.4-2-2.6-2s-2.7,1.2-2.7,2.7,1.2,2.7,2.7,2.7,2.3-.8,2.6-2h33.7v35.5h-26.3v-18.4h-10.6v9.2h-70.4c-.3-1.2-1.4-2-2.6-2s-2.7,1.2-2.7,2.7,1.2,2.7,2.7,2.7,2.3-.8,2.6-2h71.8v-9.2h7.8v18.4h29v-38.3h-35Zm-1.3.7c0,.3,0,.5-.2.7-.2.4-.6.6-1.1.6-.7,0-1.3-.6-1.3-1.3s.6-1.3,1.3-1.3.9.2,1.1.6c.1.2.2.4.2.7Zm-73.8,28.3c-.2.4-.6.6-1.1.6-.7,0-1.3-.6-1.3-1.3s.6-1.3,1.3-1.3.9.2,1.1.6c.1.2.2.4.2.7s0,.5-.2.7Z"/><path class="c" d="m187.2,92.2c-1.2,0-2.3.8-2.6,2h-5.9v-7.8h9.2v-10.6h-25.8c-.3-1.2-1.4-2-2.6-2s-2.7,1.2-2.7,2.7,1.2,2.7,2.7,2.7,2.3-.8,2.6-2h24.4v7.8h-9.2v10.6h7.3c.3,1.2,1.4,2,2.6,2s2.7-1.2,2.7-2.7-1.2-2.7-2.7-2.7Zm-26.4-15.7c0,.3,0,.5-.2.7-.2.4-.6.6-1.1.6-.7,0-1.3-.6-1.3-1.3s.6-1.3,1.3-1.3.9.2,1.1.6c.1.2.2.4.2.7Zm26.4,19.7c-.5,0-.9-.2-1.1-.6-.1-.2-.2-.4-.2-.7s0-.5.2-.7c.2-.4.6-.6,1.1-.6.7,0,1.3.6,1.3,1.3s-.6,1.3-1.3,1.3Z"/><path class="d" d="m129.5,52.8l3.4-1.4c.2,0,.4-.1.7-.1h0c1.6,0,2.4,1.9,1.3,3l-2.6,2.6c-1.1,1.1-.3,3,1.3,3h4.3l-8.4-7.1Z"/><path class="d" d="m139.4,51.2l-3.9,3.9c-.5.5-.1,1.3.5,1.3h5.6c.4,0,.8-.3.8-.8h0c0-.9-1.3-1.1-1.5-.2l-1.2,4.5-.4-8.6Z"/><path class="f" d="m195.1,55.1l-.7-.8-1.8-1.9-11.3-12.5c-1.4-1.6-2.2-3.6-2.2-5.7v-9.8h-7.4v9.8c0,2.1-.8,4.1-2.2,5.7l-13,14.4-.7.8c-.4.4-.6.9-.8,1.3-.8,2.3.7,5.1,3.4,5.3.1,0,.2,0,.4,0h33.3c.1,0,.2,0,.4,0,3.2-.3,4.8-4.2,2.6-6.6Zm-19.1-28.1c0-.4.4-.8.8-.8s.4,0,.6.2c.1.1.2.3.2.6v9.3c0,.4-.4.8-.8.8s-.8-.4-.8-.8v-9.3Zm2.8,31.2c-.1,0-.2,0-.3.1,0,0,0,0-.1,0-.5.2-1.1.3-1.6.4-.2,0-.3,0-.5,0-.2,0-.5,0-.7,0-1,0-2-.2-3-.5-1.1-.4-2.2-1.1-3-1.9-.1-.1-.2-.2-.3-.3-1.4-1.5-2.3-3.6-2.3-5.9,0-3.6,2.2-6.7,5.4-8,.2,0,.3-.1.5-.2.5-.2,1.1-.3,1.6-.4.2,0,.3,0,.5,0,.2,0,.5,0,.7,0,2.3,0,4.3.9,5.9,2.3.1.1.2.2.3.3,1.5,1.6,2.4,3.7,2.4,6,0,3.6-2.2,6.7-5.3,8Z"/><path class="d" d="m179.9,50.4l-1.1,1.1v-1.7c0-.3.2-.4.3-.5,0,0,.1,0,.2,0,.1,0,.3,0,.4.2l.2.2c.2.2.2.6,0,.8Z"/><path class="d" d="m172.2,48.5v1.7c0,.3-.2.4-.3.5-.2,0-.4,0-.6-.1l-.2-.2c-.2-.2-.2-.6,0-.8l1.1-1.1Z"/><path class="d" d="m178.3,52.7v5.6c-.5.2-1.1.3-1.6.4v-4.4l1.6-1.6Z"/><path class="d" d="m176.2,54.8v4c-.2,0-.5,0-.7,0-1,0-2-.2-3-.5-1.1-.4-2.2-1.1-3-1.9l1.8-1.8,3-3v2.3c0,.3.1.5.3.7l.2.2c.4.4,1,.4,1.4,0Z"/><path class="d" d="m174.3,41.6v4.1l-1.6,1.6v-5.4c.5-.2,1.1-.3,1.6-.4Z"/><path class="d" d="m174.3,46.4v4.5l-3.5,3.5-1.7,1.7c-1.4-1.5-2.3-3.6-2.3-5.9,0-3.6,2.2-6.7,5.4-8v5.7l-1.4,1.4c-.1.2-.2.3-.3.5,0,.3,0,.7.3.9l.2.2c.3.3.7.4,1.1.2.4-.2.6-.5.6-.9v-2.1l1.6-1.6Z"/><path class="d" d="m176.2,46.2v2.7l-1.5,1.5v-4.5l.3-.3c.1,0,.2-.2.4-.2.1,0,.3,0,.4.2l.2.2c.1.1.2.2.2.4Z"/><path class="d" d="m181.4,43.8l-2.1,2.1h0s-1.7,1.7-1.7,1.7h0l-.8.8v-2.2c0-.3-.1-.5-.3-.7l-.2-.2c-.2-.2-.4-.3-.6-.3-.3,0-.6,0-.8.3v-3.7c.2,0,.5,0,.7,0,2.3,0,4.3.9,5.9,2.3Z"/><path class="d" d="m184.1,50.1c0,3.6-2.2,6.7-5.3,8v-5.9l1.4-1.4c.4-.4.4-1.1,0-1.4l-.2-.2c-.3-.3-.7-.4-1.1-.2-.4.2-.6.5-.6.9v2.1l-.6.6-.7.7-.4.4v-4.5l5-5c1.5,1.6,2.4,3.7,2.4,6Z"/><path class="d" d="m176.2,49.6v4.5l-.3.3c-.2.2-.6.2-.8,0l-.2-.2c-.1-.1-.2-.2-.2-.4v-2.7l1.5-1.5Z"/></svg>